<svg xmlns="http://www.w3.org/2000/svg" xmlns:xlink="http://www.w3.org/1999/xlink" width="500" zoomAndPan="magnify" viewBox="0 0 375 374.999991" height="500" preserveAspectRatio="xMidYMid meet" version="1.0"><defs><g/></defs><rect x="-37.5" width="450" fill="#ffffff" y="-37.499999" height="449.999989" fill-opacity="1"/><rect x="-37.5" width="450" fill="#ffffff" y="-37.499999" height="449.999989" fill-opacity="1"/><g fill="#000000" fill-opacity="1"><g transform="translate(103.618423, 186.927938)"><g><path d="M 10.789062 0 C 11.15625 0 11.367188 -0.199219 11.367188 -0.582031 L 11.367188 -16.820312 L 15.742188 -16.820312 C 16.125 -16.820312 16.324219 -17.015625 16.324219 -17.398438 L 16.324219 -21.164062 C 16.324219 -21.546875 16.125 -21.746094 15.742188 -21.746094 L 1.160156 -21.746094 C 0.777344 -21.746094 0.582031 -21.546875 0.582031 -21.164062 L 0.582031 -17.398438 C 0.582031 -17.015625 0.777344 -16.820312 1.160156 -16.820312 L 5.535156 -16.820312 L 5.535156 -0.582031 C 5.535156 -0.199219 5.746094 0 6.117188 0 Z M 10.789062 0 "/></g></g></g><g fill="#000000" fill-opacity="1"><g transform="translate(120.549407, 186.927938)"><g><path d="M 16.210938 -8.167969 C 18.347656 -9.289062 19.566406 -11.609375 19.566406 -14.753906 C 19.566406 -18.476562 17.894531 -21.746094 11.765625 -21.746094 L 2.734375 -21.746094 C 2.351562 -21.746094 2.152344 -21.546875 2.152344 -21.164062 L 2.152344 -0.582031 C 2.152344 -0.199219 2.351562 0 2.734375 0 L 7.390625 0 C 7.773438 0 7.972656 -0.199219 7.972656 -0.582031 L 7.972656 -7.417969 L 10.421875 -7.417969 L 13.917969 -0.4375 C 14.058594 -0.140625 14.269531 0 14.582031 0 L 19.863281 0 C 20.300781 0 20.472656 -0.28125 20.273438 -0.695312 Z M 10.761719 -16.820312 C 11.921875 -16.820312 13.777344 -16.820312 13.777344 -14.695312 C 13.777344 -12.34375 11.566406 -12.34375 10.761719 -12.34375 L 7.972656 -12.34375 L 7.972656 -16.820312 Z M 10.761719 -16.820312 "/></g></g></g><g fill="#000000" fill-opacity="1"><g transform="translate(142.067045, 186.927938)"><g><path d="M 7.363281 0 C 7.746094 0 7.941406 -0.199219 7.941406 -0.582031 L 7.941406 -21.164062 C 7.941406 -21.546875 7.746094 -21.746094 7.363281 -21.746094 L 2.734375 -21.746094 C 2.351562 -21.746094 2.152344 -21.546875 2.152344 -21.164062 L 2.152344 -0.582031 C 2.152344 -0.199219 2.351562 0 2.734375 0 Z M 7.363281 0 "/></g></g></g><g fill="#000000" fill-opacity="1"><g transform="translate(152.160516, 186.927938)"><g><path d="M 13.054688 0.582031 C 20.144531 0.582031 24.875 -3.878906 24.875 -10.875 C 24.875 -17.867188 20.144531 -22.328125 13.054688 -22.328125 C 5.972656 -22.328125 1.273438 -17.867188 1.273438 -10.875 C 1.273438 -3.878906 5.972656 0.582031 13.054688 0.582031 Z M 13.054688 -4.644531 C 9.457031 -4.644531 7.078125 -7.023438 7.078125 -10.875 C 7.078125 -14.722656 9.457031 -17.101562 13.054688 -17.101562 C 16.679688 -17.101562 19.085938 -14.722656 19.085938 -10.875 C 19.085938 -7.023438 16.679688 -4.644531 13.054688 -4.644531 Z M 13.054688 -4.644531 "/></g></g></g><g fill="#000000" fill-opacity="1"><g transform="translate(178.33559, 186.927938)"><g><path d="M 7.25 0 C 7.632812 0 7.828125 -0.199219 7.828125 -0.582031 L 7.828125 -8.382812 L 12.726562 -2.660156 C 12.996094 -2.351562 13.28125 -2.351562 13.535156 -2.660156 L 18.503906 -8.4375 L 18.503906 -0.582031 C 18.503906 -0.199219 18.703125 0 19.085938 0 L 23.574219 0 C 23.953125 0 24.152344 -0.199219 24.152344 -0.582031 L 24.152344 -21.25 C 24.152344 -22.328125 23.402344 -22.582031 22.738281 -21.746094 L 13.136719 -9.742188 L 3.597656 -21.746094 C 2.902344 -22.625 2.179688 -22.328125 2.179688 -21.25 L 2.179688 -0.582031 C 2.179688 -0.199219 2.378906 0 2.761719 0 Z M 7.25 0 "/></g></g></g><g fill="#000000" fill-opacity="1"><g transform="translate(204.666383, 186.927938)"><g><path d="M 7.363281 0 C 7.746094 0 7.941406 -0.199219 7.941406 -0.582031 L 7.941406 -21.164062 C 7.941406 -21.546875 7.746094 -21.746094 7.363281 -21.746094 L 2.734375 -21.746094 C 2.351562 -21.746094 2.152344 -21.546875 2.152344 -21.164062 L 2.152344 -0.582031 C 2.152344 -0.199219 2.351562 0 2.734375 0 Z M 7.363281 0 "/></g></g></g><g fill="#000000" fill-opacity="1"><g transform="translate(214.759854, 186.927938)"><g><path d="M 7.191406 0 C 7.574219 0 7.773438 -0.199219 7.773438 -0.582031 L 7.773438 -10.957031 L 19.808594 0 C 20.710938 0.835938 21.363281 0.46875 21.363281 -0.523438 L 21.363281 -21.164062 C 21.363281 -21.546875 21.164062 -21.746094 20.785156 -21.746094 L 16.351562 -21.746094 C 15.96875 -21.746094 15.773438 -21.546875 15.773438 -21.164062 L 15.773438 -11.15625 L 3.597656 -21.886719 C 2.789062 -22.597656 2.179688 -22.242188 2.179688 -21.25 L 2.179688 -0.582031 C 2.179688 -0.199219 2.378906 0 2.761719 0 Z M 7.191406 0 "/></g></g></g><g fill="#000000" fill-opacity="1"><g transform="translate(238.301848, 186.927938)"><g><path d="M 10.007812 0 C 18.261719 0 21.859375 -4.0625 21.859375 -10.84375 C 21.859375 -17.738281 18.148438 -21.746094 10.007812 -21.746094 L 2.734375 -21.746094 C 2.351562 -21.746094 2.152344 -21.546875 2.152344 -21.164062 L 2.152344 -0.582031 C 2.152344 -0.199219 2.351562 0 2.734375 0 Z M 8 -16.820312 L 10.039062 -16.820312 C 14.117188 -16.820312 16.070312 -14.695312 16.070312 -10.929688 C 16.070312 -7.164062 14.117188 -4.925781 10.039062 -4.925781 L 8 -4.925781 Z M 8 -16.820312 "/></g></g></g></svg>